Coordinates
version=1
nRows=11
nColumns=40
inDegrees=yes

Units are S.I. units (second, meters, Newtons, ...)
Angles are in degrees.

endheader
time	pelvis_tilt	pelvis_list	pelvis_rotation	pelvis_tx	pelvis_ty	pelvis_tz	hip_flexion_r	hip_adduction_r	hip_rotation_r	knee_angle_r	knee_angle_r_beta	ankle_angle_r	subtalar_angle_r	mtp_angle_r	hip_flexion_l	hip_adduction_l	hip_rotation_l	knee_angle_l	knee_angle_l_beta	ankle_angle_l	subtalar_angle_l	mtp_angle_l	lumbar_extension	lumbar_bending	lumbar_rotation	arm_flex_r	arm_add_r	arm_rot_r	elbow_flex_r	pro_sup_r	wrist_flex_r	wrist_dev_r	arm_flex_l	arm_add_l	arm_rot_l	elbow_flex_l	pro_sup_l	wrist_flex_l	wrist_dev_l
     41.55000000	     -3.64408011	     -4.07621698	     -2.47254775	      1.04883727	      0.93651878	      0.41125122	     37.57225256	     -5.41620760	     -6.34210619	     64.25617147	     64.25617147	     -1.11490680	    -18.32066496	      8.28447763	      7.95952866	     -3.23777176	     -9.92326299	     16.70778916	     16.70778916	     14.34991296	    -10.86416066	      0.56209234	    -10.92666000	      7.76233354	      3.84433278	      4.19743453	    -12.08724388	    -15.12373243	     30.82976747	     46.94983181	      0.00000000	      0.00000000	     19.95088913	    -16.95314982	      0.19462230	     70.71635769	     46.79144401	      0.00000000	      0.00000000
     41.56171429	     -3.73221456	     -4.19646712	     -2.51879431	      1.04769100	      0.93644402	      0.41087662	     38.23258302	     -5.12514239	     -6.70337347	     61.39645402	     61.39645402	     -0.88621668	    -17.95377818	      8.29317297	      7.09727565	     -3.28486526	    -10.11756522	     16.02377575	     16.02377575	     14.58469458	    -10.37756270	      0.42938760	    -11.00159881	      8.03234403	      3.70080447	      2.47252060	    -12.03950022	    -15.12530926	     29.31895296	     46.99495755	      0.00000000	      0.00000000	     21.65047404	    -17.32435695	     -0.39624824	     72.24824707	     46.87271166	      0.00000000	      0.00000000
     41.57342857	     -3.62874019	     -4.20903541	     -2.68942583	      1.04682037	      0.93641413	      0.41072395	     38.48690838	     -4.85100986	     -6.87957527	     58.13586510	     58.13586510	     -0.94686768	    -17.44815762	      7.65456429	      5.90988916	     -3.24885759	    -10.74204542	     15.19786960	     15.19786960	     14.84023168	     -9.43525001	     -0.07398250	    -11.33002974	      7.99229827	      4.05978359	      0.99427874	    -12.10226767	    -15.14240523	     26.45551519	     47.10065478	      0.00000000	      0.00000000	     23.26620433	    -17.26146708	     -1.16522333	     75.05940570	     46.99537267	      0.00000000	      0.00000000
     41.58514286	     -3.85203767	     -4.27805924	     -2.61502090	      1.04568186	      0.93569052	      0.41041332	     38.87706388	     -4.67233367	     -7.33598413	     54.53301613	     54.53301613	     -0.80367326	    -16.64986555	      7.60492982	      5.32231267	     -3.26753844	    -10.81843619	     14.72568878	     14.72568878	     15.12049967	     -8.95750376	     -0.32649632	    -11.18584229	      8.15730938	      3.55731705	     -0.58100582	    -11.95784250	    -15.18580352	     25.25407056	     47.14053655	      0.00000000	      0.00000000	     24.80930709	    -17.85971995	     -1.70810510	     76.35222255	     47.06639838	      0.00000000	      0.00000000
     41.59685714	     -3.83210344	     -4.28476370	     -2.61501264	      1.04498333	      0.93512751	      0.41026560	     38.55535419	     -4.50342913	     -7.78619412	     50.14521140	     50.14521140	     -2.26956559	    -16.30406447	      2.72391526	      4.28787833	     -3.26351636	    -11.49908519	     13.98153688	     13.98153688	     15.19346256	     -7.77807548	     -1.56226795	    -11.36978967	      8.13089257	      2.62761649	     -0.37491479	    -11.72964701	    -16.21142775	     20.36273073	     47.47155408	      0.00000000	      0.00000000	     25.04918018	    -18.35772447	     -3.73104643	     80.41887950	     47.35176727	      0.00000000	      0.00000000
     41.60857143	     -4.02249761	     -4.30517549	     -2.47984257	      1.04421230	      0.93406889	      0.41010057	     38.40831934	     -4.34134078	     -8.29701032	     45.80935057	     45.80935057	     -1.99523400	    -15.02558483	      2.94659555	      3.66589292	     -3.24519322	    -11.57209360	     13.55143665	     13.55143665	     15.52835754	     -7.24530137	     -1.80781521	    -11.23728039	      8.21765771	      2.29573732	     -2.16725816	    -11.67705781	    -16.32783543	     19.68715468	     47.49677609	      0.00000000	      0.00000000	     26.60892134	    -18.78384638	     -4.05778356	     81.63441039	     47.40689790	      0.00000000	      0.00000000
     41.62028571	     -4.00264749	     -4.25879782	     -2.35393479	      1.04387824	      0.93312630	      0.40998776	     37.74648702	     -4.24398828	     -8.90734672	     41.14140462	     41.14140462	     -1.74881061	    -13.35109829	      2.87476437	      2.71687767	     -3.17199825	    -11.96075425	     13.00551888	     13.00551888	     15.90278121	     -6.27195720	     -2.22870464	    -11.35709497	      8.18518309	      2.31446663	     -4.13790245	    -11.65961776	    -16.51896134	     19.06142140	     47.52777615	      0.00000000	      0.00000000	     28.00669714	    -18.80650441	     -4.22713740	     83.42268701	     47.46374670	      0.00000000	      0.00000000
     41.63200000	     -4.12113303	     -4.13686084	     -2.20871796	      1.04372433	      0.93170266	      0.41008601	     37.04744407	     -4.13860914	     -9.49582164	     36.32924020	     36.32924020	     -1.52202819	    -11.63615712	      2.96131511	      1.96509627	     -3.04435126	    -12.26332014	     12.56393118	     12.56393118	     16.29828103	     -5.36749467	     -2.67070051	    -11.24076952	      8.01964400	      2.08925181	     -6.01297344	    -11.49451927	    -16.71671550	     18.66546290	     47.54807533	      0.00000000	      0.00000000	     29.33466403	    -19.10119565	     -4.40328102	     84.90565462	     47.51482047	      0.00000000	      0.00000000
     41.64371429	     -4.05313864	     -3.88897371	     -2.07068536	      1.04408726	      0.93020080	      0.41023867	     35.96988251	     -4.18699437	    -10.29962855	     31.51698142	     31.51698142	     -1.33157575	     -9.41310882	      2.53793555	      0.94981836	     -2.83967784	    -13.11263250	     12.10314240	     12.10314240	     16.78348524	     -3.60987254	     -3.46192837	    -11.36118272	      7.72636244	      2.10580906	     -8.20895233	    -11.24361407	    -17.24438748	     19.02844045	     47.56518103	      0.00000000	      0.00000000	     30.52257033	    -19.30075466	     -4.30028005	     87.04268198	     47.57378409	      0.00000000	      0.00000000
     41.65542857	     -4.01831828	     -3.72357190	     -1.87118094	      1.04476780	      0.92850584	      0.41055984	     34.74057069	     -4.03531013	    -11.06987845	     26.76268208	     26.76268208	     -1.01927896	     -7.40867487	      3.11737620	      0.02913109	     -2.69987192	    -13.46099396	     11.76987782	     11.76987782	     17.26072802	     -2.59125622	     -3.92097373	    -11.29953368	      7.53563709	      1.89794741	    -10.19511765	    -11.02955408	    -17.62770602	     19.28356439	     47.56992171	      0.00000000	      0.00000000	     31.56663221	    -19.59352718	     -4.23766196	     88.29264773	     47.61412516	      0.00000000	      0.00000000
     41.66714286	     -3.96952577	     -3.44584571	     -1.68096186	      1.04582057	      0.92656616	      0.41106953	     33.57823518	     -4.01286282	    -12.00066708	     22.61979292	     22.61979292	     -0.40218064	     -5.10680246	      4.65555035	     -0.93688004	     -2.48312632	    -14.02885293	     11.44611059	     11.44611059	     17.82629278	     -1.16537144	     -4.43903523	    -11.20588136	      7.15087356	      1.86904855	    -12.47809521	    -10.70528173	    -18.23301057	     20.34775596	     47.54822532	      0.00000000	      0.00000000	     32.56730364	    -19.80644780	     -3.80227003	     89.62062190	     47.64865173	      0.00000000	      0.00000000
